<svg width="40" height="40" viewBox="0 0 40 40" fill="none" xmlns="http://www.w3.org/2000/svg">
<path d="M39.3302 20C35.3972 16.1017 31.464 12.2034 27.531 8.30515L23.5981 12.2034L31.4642 20C27.5313 23.8983 23.5981 27.7966 19.6651 31.6949C15.7319 27.7966 11.7989 23.8983 7.86595 20L15.7321 12.2034L11.7991 8.30515C7.86595 12.2034 3.93298 16.1017 0 20C6.55503 26.4972 13.1103 32.9943 19.6653 39.4915C26.2206 32.9943 32.7756 26.4972 39.3306 20" fill="#12B2B3"/>
<path d="M15.7316 4.40684L19.6648 8.30513L23.598 4.40684L19.6648 0.508545L15.7316 4.40684Z" fill="#12B2B3"/>
<path fill-rule="evenodd" clip-rule="evenodd" d="M15.7316 20L19.6648 23.8983L23.598 20L19.6648 16.1017L15.7316 20Z" fill="#12B2B3"/>
</svg>
